<svg width="512" height="512" viewBox="0 0 512 512" fill="none" xmlns="http://www.w3.org/2000/svg">
<rect width="512" height="512" rx="10" fill="#D9D9D9"/>
<path d="M222.12 42.1382H253.894C292.745 74.051 297.74 117.943 268.879 173.813C266.752 177.883 263.561 180.89 259.306 182.832C169.117 224.874 174.806 81.4048 222.12 42.1382Z" fill="#754C24"/>
<path d="M49.4555 147.739C67.9324 185.961 103.996 206.752 130.006 194.179C156.016 181.605 162.122 140.427 143.646 102.206C125.169 63.9846 89.1049 43.193 63.095 55.7666C37.0852 68.3403 30.9785 109.518 49.4555 147.739Z" fill="#754C24"/>
<path d="M327.988 279.125C275.124 253.873 280.257 216.549 313.974 179.779C338.394 153.139 377.383 95.6961 415.679 150.642C445.094 192.961 393.617 250.959 365.173 274.547C360.09 278.811 353.876 281.512 347.279 282.325C340.682 283.137 333.982 282.026 327.988 279.125Z" fill="#754C24"/>
<path d="M145.391 201.564C231.001 172.565 385.292 355.578 289.276 440.493C258.751 467.411 214.628 500.018 179.94 459.364C152.56 427.266 120.647 400.302 84.2015 378.472C-10.1495 322 82.814 222.654 145.391 201.564Z" fill="#754C24"/>
<path d="M416.622 322.091L373.039 340.861C350.236 350.682 339.711 377.129 349.532 399.932L352.057 405.794C361.877 428.598 388.324 439.122 411.128 429.302L454.711 410.532C477.514 400.711 488.039 374.264 478.218 351.461L475.693 345.599C465.873 322.795 439.426 312.271 416.622 322.091Z" fill="#754C24"/>
</svg>
