<svg width="512" height="512" viewBox="0 0 512 512" fill="none" xmlns="http://www.w3.org/2000/svg">
<rect width="512" height="512" fill="white"/>
<path d="M186.282 112.412C183.619 154.735 204.152 190.472 232.143 192.233C260.134 193.994 284.984 161.112 287.647 118.789C290.31 76.4655 269.777 40.7281 241.786 38.9671C213.795 37.206 188.945 70.0882 186.282 112.412Z" fill="#754C24"/>
<path d="M49.6159 147.422C68.1814 185.657 104.528 206.311 130.797 193.555C157.067 180.799 163.313 139.463 144.747 101.229C126.182 62.995 89.8354 42.3407 63.5656 55.0966C37.2959 67.8526 31.0504 109.188 49.6159 147.422Z" fill="#754C24"/>
<path d="M414.716 148.508L405.399 140.607C386.582 124.649 358.39 126.967 342.432 145.784L296.606 199.82C280.648 218.637 282.965 246.829 301.783 262.787L311.099 270.688C329.917 286.647 358.108 284.329 374.067 265.511L419.892 211.475C435.851 192.658 433.533 164.467 414.716 148.508Z" fill="#754C24"/>
<path d="M82.523 375.272C-14.5049 312.274 95.9601 215.071 157.562 198.318C248.133 173.538 442.887 430.417 210.614 480.502C207.957 481.081 205.2 480.949 202.624 480.122C200.048 479.294 197.747 477.799 195.955 475.79C154.887 431.115 117.076 397.609 82.523 375.272Z" fill="#754C24"/>
<path d="M419.396 320.722L372.238 340.933C350.889 350.083 341 374.808 350.15 396.157L354.963 407.385C364.113 428.734 388.837 438.624 410.187 429.473L457.344 409.262C478.693 400.111 488.582 375.387 479.432 354.038L474.62 342.81C465.469 321.46 440.745 311.571 419.396 320.722Z" fill="#754C24"/>
</svg>
