<?xml version="1.0" standalone="no"?>
<!DOCTYPE svg PUBLIC "-//W3C//DTD SVG 20010904//EN"
 "http://www.w3.org/TR/2001/REC-SVG-20010904/DTD/svg10.dtd">
<svg version="1.0" xmlns="http://www.w3.org/2000/svg"
 width="700.000000pt" height="700.000000pt" viewBox="0 0 700.000000 700.000000"
 preserveAspectRatio="xMidYMid meet">
<metadata>
Created by potrace 1.14, written by Peter Selinger 2001-2017
</metadata>
<g transform="translate(0.000000,700.000000) scale(0.100000,-0.100000)"
fill="#000000" stroke="none">
<path d="M3166 6454 c-195 -47 -392 -240 -500 -490 -81 -185 -118 -376 -119
-599 0 -361 105 -651 305 -841 79 -75 149 -115 243 -139 113 -29 209 -16 334
46 185 91 352 312 434 574 153 486 54 1038 -235 1310 -138 130 -298 179 -462
139z"/>
<path d="M984 6286 c-304 -70 -487 -402 -445 -809 52 -513 394 -995 805 -1137
364 -125 685 76 762 478 21 108 18 310 -5 431 -83 424 -365 816 -703 976 -138
65 -295 88 -414 61z"/>
<path d="M4980 5197 c-94 -29 -169 -69 -232 -125 -58 -53 -697 -804 -744 -875
-78 -119 -111 -302 -80 -447 33 -158 106 -262 289 -415 155 -131 266 -176 432
-176 161 -1 307 55 417 161 32 30 207 231 388 445 409 482 432 522 431 745 0
195 -76 344 -249 492 -198 169 -283 208 -467 214 -93 4 -121 1 -185 -19z"/>
<path d="M2190 4296 c-238 -53 -612 -252 -877 -467 -104 -85 -290 -266 -368
-359 -245 -294 -365 -607 -334 -875 19 -171 87 -320 212 -466 76 -89 177 -171
367 -301 428 -290 857 -666 1318 -1151 110 -117 213 -217 234 -228 53 -27 119
-24 258 11 449 113 768 277 1005 515 158 158 250 306 313 505 46 146 57 227
56 415 -1 313 -71 579 -244 930 -361 729 -1075 1370 -1640 1471 -91 16 -226
16 -300 0z"/>
<path d="M5815 2641 c-101 -28 -760 -315 -823 -358 -166 -114 -266 -321 -248
-517 7 -87 21 -131 82 -270 84 -192 159 -281 298 -351 121 -61 242 -77 370
-50 66 14 648 256 801 333 137 68 254 220 291 378 23 96 14 225 -21 324 -102
283 -221 427 -413 497 -94 35 -240 41 -337 14z"/>
</g>
</svg>
