<?xml version="1.0" encoding="UTF-8" standalone="no"?>
<!DOCTYPE svg PUBLIC "-//W3C//DTD SVG 1.1//EN" "http://www.w3.org/Graphics/SVG/1.1/DTD/svg11.dtd">
<svg xmlns="http://www.w3.org/2000/svg" version="1.1" viewBox="0.00 0.00 232.00 150.00">
  <g stroke-width="2.00" fill="none" stroke-linecap="butt">
    <path stroke="#e7e7e7" vector-effect="non-scaling-stroke" d="
  M 1.28 0.00
  L 89.41 57.33
  A 0.51 0.51 0.0 0 1 89.02 58.25
  Q 88.63 58.15 87.84 57.65
  Q 44.03 29.33 0.00 0.97" />
    <path stroke="#e7e7e7" vector-effect="non-scaling-stroke" d="
  M 230.09 0.00
  Q 230.03 0.78 228.22 1.96
  Q 183.38 31.06 137.77 60.54
  Q 137.14 60.95 137.86 61.18
  Q 138.52 61.39 139.79 60.56
  Q 185.78 30.73 232.00 0.81" />
    <path stroke="#e7e7e7" vector-effect="non-scaling-stroke" d="
  M 232.00 149.67
  L 146.74 94.45
  A 0.47 0.47 0.0 0 0 146.06 95.05
  Q 146.48 95.90 147.49 96.55
  Q 188.60 122.95 230.18 150.00" />
    <path stroke="#e7e7e7" vector-effect="non-scaling-stroke" d="
  M 1.97 150.00
  L 87.25 94.50
  A 0.57 0.55 73.0 0 0 87.50 94.01
  Q 87.50 93.87 87.51 93.73
  A 0.33 0.33 0.0 0 0 87.00 93.44
  Q 43.87 121.34 0.69 149.16
  Q 0.41 149.34 0.00 148.94" />
    <path stroke="#e7e7e7" vector-effect="non-scaling-stroke" d="
  M 127.70 63.75
  A 0.32 0.32 0.0 0 1 127.41 63.57
  L 123.84 56.43
  A 0.32 0.32 0.0 0 0 123.55 56.25
  L 108.95 56.25
  A 0.32 0.32 0.0 0 0 108.66 56.43
  L 105.08 63.60
  A 0.32 0.32 0.0 0 1 104.87 63.77
  L 90.24 67.46
  A 0.32 0.32 0.0 0 0 90.00 67.77
  L 90.00 93.68
  A 0.32 0.32 0.0 0 0 90.32 94.00
  L 142.18 94.00
  A 0.32 0.32 0.0 0 0 142.50 93.68
  L 142.50 64.07
  A 0.32 0.32 0.0 0 0 142.18 63.75
  L 127.70 63.75" />
    <path stroke="#e7e7e7" vector-effect="non-scaling-stroke" d="
  M 93.46 58.84
  L 93.94 62.63
  A 0.24 0.24 0.0 0 0 94.21 62.84
  L 94.40 62.82
  A 7.27 1.39 -7.3 0 0 101.44 60.51
  L 101.24 59.01
  A 7.27 1.39 -7.3 0 0 93.85 58.55
  L 93.67 58.58
  A 0.24 0.24 0.0 0 0 93.46 58.84" />
    <path stroke="#e7e7e7" vector-effect="non-scaling-stroke" d="
  M 129.32 76.97
  A 13.08 13.08 0.0 0 0 116.24 63.89
  A 13.08 13.08 0.0 0 0 103.16 76.97
  A 13.08 13.08 0.0 0 0 116.24 90.05
  A 13.08 13.08 0.0 0 0 129.32 76.97" />
    <path stroke="#e7e7e7" vector-effect="non-scaling-stroke" d="
  M 125.55 77.15
  A 9.33 9.33 0.0 0 0 116.22 67.82
  A 9.33 9.33 0.0 0 0 106.89 77.15
  A 9.33 9.33 0.0 0 0 116.22 86.48
  A 9.33 9.33 0.0 0 0 125.55 77.15" />
  </g>
  <path fill="#d6d6d6" d="
  M 0.00 0.00
  L 1.28 0.00
  L 89.41 57.33
  A 0.51 0.51 0.0 0 1 89.02 58.25
  Q 88.63 58.15 87.84 57.65
  Q 44.03 29.33 0.00 0.97
  L 0.00 0.00
  Z" />
  <path fill="#f7f7f7" d="
  M 1.28 0.00
  L 230.09 0.00
  Q 230.03 0.78 228.22 1.96
  Q 183.38 31.06 137.77 60.54
  Q 137.14 60.95 137.86 61.18
  Q 138.52 61.39 139.79 60.56
  Q 185.78 30.73 232.00 0.81
  L 232.00 149.67
  L 146.74 94.45
  A 0.47 0.47 0.0 0 0 146.06 95.05
  Q 146.48 95.90 147.49 96.55
  Q 188.60 122.95 230.18 150.00
  L 1.97 150.00
  L 87.25 94.50
  A 0.57 0.55 73.0 0 0 87.50 94.01
  Q 87.50 93.87 87.51 93.73
  A 0.33 0.33 0.0 0 0 87.00 93.44
  Q 43.87 121.34 0.69 149.16
  Q 0.41 149.34 0.00 148.94
  L 0.00 0.97
  Q 44.03 29.33 87.84 57.65
  Q 88.63 58.15 89.02 58.25
  A 0.51 0.51 0.0 0 0 89.41 57.33
  L 1.28 0.00
  Z
  M 127.70 63.75
  A 0.32 0.32 0.0 0 1 127.41 63.57
  L 123.84 56.43
  A 0.32 0.32 0.0 0 0 123.55 56.25
  L 108.95 56.25
  A 0.32 0.32 0.0 0 0 108.66 56.43
  L 105.08 63.60
  A 0.32 0.32 0.0 0 1 104.87 63.77
  L 90.24 67.46
  A 0.32 0.32 0.0 0 0 90.00 67.77
  L 90.00 93.68
  A 0.32 0.32 0.0 0 0 90.32 94.00
  L 142.18 94.00
  A 0.32 0.32 0.0 0 0 142.50 93.68
  L 142.50 64.07
  A 0.32 0.32 0.0 0 0 142.18 63.75
  L 127.70 63.75
  Z
  M 93.46 58.84
  L 93.94 62.63
  A 0.24 0.24 0.0 0 0 94.21 62.84
  L 94.40 62.82
  A 7.27 1.39 -7.3 0 0 101.44 60.51
  L 101.24 59.01
  A 7.27 1.39 -7.3 0 0 93.85 58.55
  L 93.67 58.58
  A 0.24 0.24 0.0 0 0 93.46 58.84
  Z" />
  <path fill="#d6d6d6" d="
  M 230.09 0.00
  L 232.00 0.00
  L 232.00 0.81
  Q 185.78 30.73 139.79 60.56
  Q 138.52 61.39 137.86 61.18
  Q 137.14 60.95 137.77 60.54
  Q 183.38 31.06 228.22 1.96
  Q 230.03 0.78 230.09 0.00
  Z" />
  <path fill="#d6d6d6" d="
  M 127.70 63.75
  L 142.18 63.75
  A 0.32 0.32 0.0 0 1 142.50 64.07
  L 142.50 93.68
  A 0.32 0.32 0.0 0 1 142.18 94.00
  L 90.32 94.00
  A 0.32 0.32 0.0 0 1 90.00 93.68
  L 90.00 67.77
  A 0.32 0.32 0.0 0 1 90.24 67.46
  L 104.87 63.77
  A 0.32 0.32 0.0 0 0 105.08 63.60
  L 108.66 56.43
  A 0.32 0.32 0.0 0 1 108.95 56.25
  L 123.55 56.25
  A 0.32 0.32 0.0 0 1 123.84 56.43
  L 127.41 63.57
  A 0.32 0.32 0.0 0 0 127.70 63.75
  Z
  M 129.32 76.97
  A 13.08 13.08 0.0 0 0 116.24 63.89
  A 13.08 13.08 0.0 0 0 103.16 76.97
  A 13.08 13.08 0.0 0 0 116.24 90.05
  A 13.08 13.08 0.0 0 0 129.32 76.97
  Z" />
  <path fill="#d6d6d6" d="
  M 93.46 58.84
  A 0.24 0.24 0.0 0 1 93.67 58.58
  L 93.85 58.55
  A 7.27 1.39 -7.3 0 1 101.24 59.01
  L 101.44 60.51
  A 7.27 1.39 -7.3 0 1 94.40 62.82
  L 94.21 62.84
  A 0.24 0.24 0.0 0 1 93.94 62.63
  L 93.46 58.84
  Z" />
  <path fill="#f7f7f7" d="
  M 129.32 76.97
  A 13.08 13.08 0.0 0 1 116.24 90.05
  A 13.08 13.08 0.0 0 1 103.16 76.97
  A 13.08 13.08 0.0 0 1 116.24 63.89
  A 13.08 13.08 0.0 0 1 129.32 76.97
  Z
  M 125.55 77.15
  A 9.33 9.33 0.0 0 0 116.22 67.82
  A 9.33 9.33 0.0 0 0 106.89 77.15
  A 9.33 9.33 0.0 0 0 116.22 86.48
  A 9.33 9.33 0.0 0 0 125.55 77.15
  Z" />
  <circle fill="#d6d6d6" cx="116.22" cy="77.15" r="9.33" />
  <path fill="#d6d6d6" d="
  M 1.97 150.00
  L 0.00 150.00
  L 0.00 148.94
  Q 0.41 149.34 0.69 149.16
  Q 43.87 121.34 87.00 93.44
  A 0.33 0.33 0.0 0 1 87.51 93.73
  Q 87.50 93.87 87.50 94.01
  A 0.57 0.55 73.0 0 1 87.25 94.50
  L 1.97 150.00
  Z" />
  <path fill="#d6d6d6" d="
  M 232.00 149.67
  L 232.00 150.00
  L 230.18 150.00
  Q 188.60 122.95 147.49 96.55
  Q 146.48 95.90 146.06 95.05
  A 0.47 0.47 0.0 0 1 146.74 94.45
  L 232.00 149.67
  Z" />
</svg>